<?xml version="1.0" encoding="utf-8" standalone="no"?>
<!DOCTYPE svg PUBLIC "-//W3C//DTD SVG 1.1//EN"
  "http://www.w3.org/Graphics/SVG/1.1/DTD/svg11.dtd">
<svg xmlns:xlink="http://www.w3.org/1999/xlink" width="576pt" height="532.8pt" viewBox="0 0 576 532.8" xmlns="http://www.w3.org/2000/svg" version="1.1">
 <metadata>
  <rdf:RDF xmlns:dc="http://purl.org/dc/elements/1.1/" xmlns:cc="http://creativecommons.org/ns#" xmlns:rdf="http://www.w3.org/1999/02/22-rdf-syntax-ns#">
   <cc:Work>
    <dc:type rdf:resource="http://purl.org/dc/dcmitype/StillImage"/>
    <dc:date>2026-10-07T11:34:27.649509</dc:date>
    <dc:format>image/svg+xml</dc:format>
    <dc:creator>
     <cc:Agent>
      <dc:title>Matplotlib v3.10.8, https://matplotlib.org/</dc:title>
     </cc:Agent>
    </dc:creator>
   </cc:Work>
  </rdf:RDF>
 </metadata>
 <defs>
  <style type="text/css">*{stroke-linejoin: round; stroke-linecap: butt}</style>
 </defs>
 <g id="figure_1">
  <g id="patch_1">
   <path d="M 0 532.8 
L 576 532.8 
L 576 0 
L 0 0 
z
" style="fill: #ffffff"/>
  </g>
  <g id="axes_1">
   <g id="patch_2">
    <path d="M 50.949153 460.555932 
Q 290.257627 460.555932 527.777247 460.555932 
" clip-path="url(#pb6da29008f)" style="fill: none; stroke: #222322; stroke-width: 1.6; stroke-linecap: round"/>
    <path d="M 521.377247 457.355932 
L 527.777247 460.555932 
L 521.377247 463.755932 
z
" clip-path="url(#pb6da29008f)" style="fill: #222322; stroke: #222322; stroke-width: 1.6; stroke-linecap: round"/>
   </g>
   <g id="patch_3">
    <path d="M 50.949153 460.555932 
Q 50.949153 234.79322 50.949153 10.819363 
" clip-path="url(#pb6da29008f)" style="fill: none; stroke: #222322; stroke-width: 1.6; stroke-linecap: round"/>
    <path d="M 47.749153 17.219363 
L 50.949153 10.819363 
L 54.149153 17.219363 
z
" clip-path="url(#pb6da29008f)" style="fill: #222322; stroke: #222322; stroke-width: 1.6; stroke-linecap: round"/>
   </g>
   <g id="patch_4">
    <path d="M 220.271186 189.640678 
L 276.711864 234.79322 
L 276.711864 144.488136 
z
" clip-path="url(#pb6da29008f)" style="fill: #d9d9d9"/>
   </g>
   <g id="line2d_1">
    <path d="M 50.949153 234.79322 
L 276.711864 234.79322 
" clip-path="url(#pb6da29008f)" style="fill: none; stroke-dasharray: 4,3; stroke-dashoffset: 0; stroke: #6b685f"/>
   </g>
   <g id="line2d_2">
    <path d="M 276.711864 460.555932 
L 276.711864 234.79322 
" clip-path="url(#pb6da29008f)" style="fill: none; stroke-dasharray: 4,3; stroke-dashoffset: 0; stroke: #6b685f"/>
   </g>
   <g id="line2d_3">
    <path d="M 50.949153 189.640678 
L 220.271186 189.640678 
" clip-path="url(#pb6da29008f)" style="fill: none; stroke-dasharray: 4,3; stroke-dashoffset: 0; stroke: #6b685f"/>
   </g>
   <g id="line2d_4">
    <path d="M 220.271186 460.555932 
L 220.271186 189.640678 
" clip-path="url(#pb6da29008f)" style="fill: none; stroke-dasharray: 4,3; stroke-dashoffset: 0; stroke: #6b685f"/>
   </g>
   <g id="text_1">
    <text style="font-style: italic; font-size: 15px; font-family: 'Roboto'; text-anchor: start; fill: #222322" x="538.59661" y="466.718247" transform="rotate(-0 538.59661 466.718247)">y</text>
   </g>
   <g id="text_2">
    <text style="font-style: italic; font-size: 15px; font-family: 'Roboto'; text-anchor: middle; fill: #222322" x="48.691525" y="-5.304502" transform="rotate(-0 48.691525 -5.304502)">p</text>
   </g>
   <g id="line2d_5">
    <path d="M 50.949153 54.183051 
L 479.898305 397.342373 
" clip-path="url(#pb6da29008f)" style="fill: none; stroke: #869e2f; stroke-width: 3; stroke-linecap: square"/>
   </g>
   <g id="line2d_6">
    <path d="M 50.949153 415.40339 
L 439.261017 104.753898 
" clip-path="url(#pb6da29008f)" style="fill: none; stroke: #003a70; stroke-width: 3; stroke-linecap: square"/>
   </g>
   <g id="line2d_7">
    <path d="M 50.949153 325.098305 
L 330.894915 101.141695 
" clip-path="url(#pb6da29008f)" style="fill: none; stroke-dasharray: 9,6; stroke-dashoffset: 0; stroke: #e54d23; stroke-width: 3"/>
   </g>
   <g id="text_3">
    <text style="font-size: 12px; font-family: 'Roboto'; text-anchor: start; fill: #869e2f" x="486.671186" y="400.623623" transform="rotate(-0 486.671186 400.623623)">Demand</text>
   </g>
   <g id="text_4">
    <text style="font-size: 12px; font-family: 'Roboto'; fill: #003a70" transform="translate(446.033898 101.387336)">Private</text>
    <text style="font-size: 12px; font-family: 'Roboto'; fill: #003a70" transform="translate(446.033898 114.624836)">marginal cost</text>
   </g>
   <g id="text_5">
    <text style="font-size: 12px; font-family: 'Roboto'; fill: #e54d23" transform="translate(337.667797 97.775132)">Social</text>
    <text style="font-size: 12px; font-family: 'Roboto'; fill: #e54d23" transform="translate(337.667797 111.012632)">marginal cost</text>
   </g>
   <g id="text_6">
    <text style="font-weight: 700; font-size: 13px; font-family: 'Roboto'; text-anchor: start; fill: #222322" x="288" y="221.247458" transform="rotate(-0 288 221.247458)">A</text>
   </g>
   <g id="text_7">
    <text style="font-style: italic; font-size: 13px; font-family: 'Roboto'; text-anchor: end; fill: #222322" x="41.918644" y="238.347908" transform="rotate(-0 41.918644 238.347908)">p′</text>
   </g>
   <g id="text_8">
    <text style="font-style: italic; font-size: 13px; font-family: 'Roboto'; text-anchor: middle; fill: #222322" x="276.711864" y="483.851695" transform="rotate(-0 276.711864 483.851695)">y′</text>
   </g>
   <g id="text_9">
    <text style="font-weight: 700; font-size: 13px; font-family: 'Roboto'; text-anchor: end; fill: #222322" x="208.983051" y="176.094915" transform="rotate(-0 208.983051 176.094915)">B</text>
   </g>
   <g id="text_10">
    <text style="font-style: italic; font-size: 13px; font-family: 'Roboto'; text-anchor: end; fill: #222322" x="41.918644" y="193.195365" transform="rotate(-0 41.918644 193.195365)">p*</text>
   </g>
   <g id="text_11">
    <text style="font-style: italic; font-size: 13px; font-family: 'Roboto'; text-anchor: middle; fill: #222322" x="220.271186" y="483.68107" transform="rotate(-0 220.271186 483.68107)">y*</text>
   </g>
   <g id="line2d_8">
    <defs>
     <path id="me4ab8a0c17" d="M 0 4 
C 1.060812 4 2.078319 3.578535 2.828427 2.828427 
C 3.578535 2.078319 4 1.060812 4 0 
C 4 -1.060812 3.578535 -2.078319 2.828427 -2.828427 
C 2.078319 -3.578535 1.060812 -4 0 -4 
C -1.060812 -4 -2.078319 -3.578535 -2.828427 -2.828427 
C -3.578535 -2.078319 -4 -1.060812 -4 0 
C -4 1.060812 -3.578535 2.078319 -2.828427 2.828427 
C -2.078319 3.578535 -1.060812 4 0 4 
z
" style="stroke: #222322"/>
    </defs>
    <g clip-path="url(#pb6da29008f)">
     <use xlink:href="#me4ab8a0c17" x="276.711864" y="234.79322" style="fill: #222322; stroke: #222322"/>
    </g>
   </g>
   <g id="line2d_9">
    <g clip-path="url(#pb6da29008f)">
     <use xlink:href="#me4ab8a0c17" x="220.271186" y="189.640678" style="fill: #222322; stroke: #222322"/>
    </g>
   </g>
  </g>
  <g id="text_12">
   <text style="font-size: 7px; font-family: 'Roboto'; text-anchor: start; fill: #6b685f" x="11.52" y="524.799681" transform="rotate(-0 11.52 524.799681)">Figure created with the assistance of Claude Code (Anthropic) — transparency notice per EU AI Act Art. 50.</text>
  </g>
 </g>
 <defs>
  <clipPath id="pb6da29008f">
   <rect x="5.79661" y="0" width="564.40678" height="532.8"/>
  </clipPath>
 </defs>
</svg>
